<svg width="22" height="20" viewBox="0 0 22 20" fill="none" xmlns="http://www.w3.org/2000/svg">
<path d="M15.3542 18.4667L12.8334 15.9667L13.8967 15L15.3542 16.325L18.6451 13.3334L19.7084 14.5084L15.3542 18.4667ZM5.50008 18.3334C4.48258 18.3334 3.66675 17.5834 3.66675 16.6667V3.33335C3.66675 2.40835 4.48258 1.66669 5.50008 1.66669H6.41675V7.50002L8.70841 6.25002L11.0001 7.50002V1.66669H16.5001C17.5084 1.66669 18.3334 2.40835 18.3334 3.33335V11.1167C17.7559 10.9334 17.1417 10.8334 16.5001 10.8334C13.4659 10.8334 11.0001 13.075 11.0001 15.8334C11.0001 16.7417 11.2659 17.6 11.7334 18.3334H5.50008Z" fill="#3B4E42"/>
</svg>
