<svg width="15" height="15" viewBox="0 0 15 15" fill="none" xmlns="http://www.w3.org/2000/svg">
<path d="M11.875 13.125H5V4.375H11.875M11.875 3.125H5C4.66848 3.125 4.35054 3.2567 4.11612 3.49112C3.8817 3.72554 3.75 4.04348 3.75 4.375V13.125C3.75 13.4565 3.8817 13.7745 4.11612 14.0089C4.35054 14.2433 4.66848 14.375 5 14.375H11.875C12.2065 14.375 12.5245 14.2433 12.7589 14.0089C12.9933 13.7745 13.125 13.4565 13.125 13.125V4.375C13.125 4.04348 12.9933 3.72554 12.7589 3.49112C12.5245 3.2567 12.2065 3.125 11.875 3.125ZM10 0.625H2.5C2.16848 0.625 1.85054 0.756696 1.61612 0.991117C1.3817 1.22554 1.25 1.54348 1.25 1.875V10.625H2.5V1.875H10V0.625Z" fill="#3B4E42"/>
</svg>
