<svg width="60" height="14" viewBox="0 0 60 14" fill="none" xmlns="http://www.w3.org/2000/svg">
<path fill-rule="evenodd" clip-rule="evenodd" d="M48 12.3278C46.729 13.3705 45.0803 14 43.2787 14C39.2588 14 36 10.866 36 7C36 3.13401 39.2588 0 43.2787 0C45.0803 0 46.729 0.629475 48 1.6722C49.271 0.629475 50.9197 0 52.7213 0C56.7412 0 60 3.13401 60 7C60 10.866 56.7412 14 52.7213 14C50.9197 14 49.271 13.3705 48 12.3278Z" fill="#ED0006"/>
<path fill-rule="evenodd" clip-rule="evenodd" d="M48 12.3278C49.565 11.0439 50.5574 9.13339 50.5574 7C50.5574 4.86661 49.565 2.95613 48 1.6722C49.271 0.629474 50.9197 0 52.7213 0C56.7412 0 60 3.13401 60 7C60 10.866 56.7412 14 52.7213 14C50.9197 14 49.271 13.3705 48 12.3278Z" fill="#F9A000"/>
<path fill-rule="evenodd" clip-rule="evenodd" d="M48.0002 12.3278C49.5652 11.0439 50.5576 9.13338 50.5576 7.00001C50.5576 4.86664 49.5652 2.95617 48.0002 1.67224C46.4352 2.95617 45.4429 4.86664 45.4429 7.00001C45.4429 9.13338 46.4352 11.0439 48.0002 12.3278Z" fill="#FF5E00"/>
<path fill-rule="evenodd" clip-rule="evenodd" d="M6.75028 10.9377H4.4136L2.66138 4.73151C2.57821 4.44603 2.40162 4.19364 2.14186 4.07469C1.49361 3.77576 0.779273 3.53786 0 3.41787V3.17894H3.76421C4.28372 3.17894 4.67336 3.53786 4.7383 3.95471L5.64745 8.43143L7.98299 3.17894H10.2547L6.75028 10.9377ZM11.5535 10.9377H9.34672L11.1639 3.17894H13.3707L11.5535 10.9377ZM16.2257 5.32835C16.2907 4.91047 16.6803 4.67153 17.1349 4.67153C17.8492 4.61154 18.6274 4.73152 19.2768 5.02942L19.6664 3.35892C19.017 3.11999 18.3027 3 17.6544 3C15.5126 3 13.954 4.0747 13.954 5.56625C13.954 6.70095 15.058 7.29674 15.8373 7.65566C16.6803 8.01355 17.005 8.25249 16.9401 8.61038C16.9401 9.14721 16.2907 9.38615 15.6424 9.38615C14.8632 9.38615 14.0839 9.20721 13.3707 8.90828L12.9811 10.5798C13.7603 10.8777 14.6034 10.9977 15.3827 10.9977C17.7843 11.0566 19.2768 9.98298 19.2768 8.37144C19.2768 6.34202 16.2257 6.22307 16.2257 5.32835ZM27 10.9377L25.2478 3.17894H23.3657C22.976 3.17894 22.5864 3.41787 22.4565 3.77576L19.2118 10.9377H21.4836L21.937 9.80402H24.7283L24.988 10.9377H27ZM23.6904 5.26834L24.3386 8.19248H22.5215L23.6904 5.26834Z" fill="#172B85"/>
</svg>
