<svg width="195" height="26" viewBox="0 0 195 26" fill="none" xmlns="http://www.w3.org/2000/svg">
<path d="M12.4147 0.248074C12.1398 0.578764 12.3339 0.992126 12.7383 0.992126C12.9162 0.992126 13.1103 0.876385 13.1588 0.744109C13.2559 0.496091 12.9809 5.60284e-05 12.7383 5.60284e-05C12.6736 5.60284e-05 12.528 0.115798 12.4147 0.248074Z" fill="#3B4E42"/>
<path d="M11.0236 0.413418C10.8942 0.760643 11.0559 1.15747 11.3309 1.15747C11.6706 1.15747 11.9456 0.744108 11.8324 0.429953C11.703 0.0992625 11.1368 0.082728 11.0236 0.413418Z" fill="#3B4E42"/>
<path d="M13.7412 0.380322C13.5956 0.545667 13.6117 0.677943 13.7735 0.909426C14.0647 1.32279 14.5499 1.12437 14.4852 0.628339C14.4205 0.181907 14 0.0496315 13.7412 0.380322Z" fill="#3B4E42"/>
<path d="M9.72964 0.578457C9.60024 0.925682 9.762 1.32251 10.037 1.32251C10.1664 1.32251 10.3605 1.20677 10.4737 1.07449C10.6355 0.876078 10.6355 0.776871 10.4737 0.578457C10.3605 0.446181 10.1664 0.330439 10.037 0.330439C9.92375 0.330439 9.77817 0.446181 9.72964 0.578457Z" fill="#3B4E42"/>
<path d="M15.0675 0.578457C14.9381 0.925682 15.0999 1.32251 15.3749 1.32251C15.5043 1.32251 15.6984 1.20677 15.8116 1.07449C15.9734 0.876078 15.9734 0.776871 15.8116 0.578457C15.6984 0.446181 15.5043 0.330439 15.3749 0.330439C15.2616 0.330439 15.1161 0.446181 15.0675 0.578457Z" fill="#3B4E42"/>
<path d="M8.56493 0.810027C8.22524 1.02498 8.40317 1.57061 8.82374 1.62022C9.26048 1.68636 9.47076 1.25646 9.1796 0.909234C8.95314 0.628148 8.85609 0.611613 8.56493 0.810027Z" fill="#3B4E42"/>
<path d="M16.3131 0.958973C16.119 1.33927 16.3293 1.70303 16.7175 1.62035C17.0896 1.55422 17.219 1.00858 16.9116 0.810163C16.6043 0.595214 16.4911 0.628283 16.3131 0.958973Z" fill="#3B4E42"/>
<path d="M7.25481 1.38903C6.97983 1.71972 7.22246 2.18269 7.62685 2.11655C8.01507 2.06695 8.17682 1.50478 7.85331 1.30636C7.56215 1.10795 7.46509 1.12448 7.25481 1.38903Z" fill="#3B4E42"/>
<path d="M17.494 1.40542C17.3484 1.78572 17.5426 2.14948 17.8984 2.14948C18.2705 2.14948 18.4646 1.68651 18.2219 1.38889C17.9793 1.09127 17.6073 1.09127 17.494 1.40542Z" fill="#3B4E42"/>
<path d="M6.1062 2.06651C5.92827 2.28146 5.92827 2.38066 6.15473 2.59561C6.49442 2.94284 6.94733 2.74442 6.88263 2.28146C6.81793 1.81849 6.39736 1.70275 6.1062 2.06651Z" fill="#3B4E42"/>
<path d="M18.6264 2.0668C18.497 2.41402 18.6587 2.81085 18.9337 2.81085C19.2734 2.81085 19.5484 2.39749 19.4352 2.08333C19.3057 1.75264 18.7396 1.73611 18.6264 2.0668Z" fill="#3B4E42"/>
<path d="M11.0236 2.14947C8.80751 2.56283 6.7532 3.65411 5.15182 5.30756C0.897636 9.65613 0.897636 16.4683 5.15182 20.8169C9.42218 25.182 16.1674 25.149 20.4378 20.7508C22.5568 18.5682 23.6891 15.5093 23.5273 12.4835C23.3494 9.45772 22.0877 6.8122 19.8878 4.79499C18.8364 3.83599 16.8953 2.76124 15.5689 2.41402C14.3719 2.08333 12.075 1.96759 11.0236 2.14947ZM15.9409 3.35649C17.607 3.96826 18.8364 4.77845 20.0334 6.08468C21.8289 8.03575 22.767 10.4002 22.767 13.0292C22.767 15.8731 21.7965 18.221 19.7907 20.2547C18.3188 21.7429 17.0571 22.4704 15.0351 22.9995C8.09578 24.8017 1.46378 18.2375 2.95194 10.9954C3.72837 7.22556 6.59145 4.16668 10.3442 3.14154C11.9941 2.67857 14.291 2.77778 15.9409 3.35649Z" fill="#3B4E42"/>
<path d="M11.5736 4.33175C8.51643 4.69551 5.94451 6.77886 4.66664 9.92041C4.37548 10.6149 4.26225 11.2597 4.21372 12.6486C4.13285 14.3021 4.1652 14.5831 4.55341 15.7736C5.78276 19.5104 8.92082 21.8253 12.7221 21.8253C15.3425 21.8087 17.0248 21.0977 18.8203 19.2789C20.179 17.89 20.8746 16.5673 21.2628 14.6327C22.2495 9.67239 18.4483 4.62937 13.4662 4.26561C13.0294 4.23254 12.1721 4.26561 11.5736 4.33175ZM14.5014 5.20808C17.3968 5.90253 19.6614 8.20082 20.4217 11.1605C21.5378 15.5587 18.5453 20.1718 14.0323 20.9985C10.3766 21.6764 6.54301 19.3451 5.31367 15.6744C4.34313 12.7974 4.99015 9.83774 7.07681 7.53944C9.01788 5.42303 11.7839 4.56323 14.5014 5.20808Z" fill="#3B4E42"/>
<path d="M10.8457 6.67987C8.25761 7.53967 6.44594 9.92064 6.30036 12.6488C6.15478 15.4928 7.59441 17.9564 10.1178 19.1469C10.9266 19.5272 11.2501 19.5933 12.7382 19.5933C14.3396 19.5933 14.5014 19.5603 15.5205 19.0477C16.9116 18.3532 17.9953 17.2454 18.6262 15.8731C19.532 13.922 19.3864 11.3261 18.2865 9.54034C17.6556 8.53174 16.6042 7.58927 15.4881 7.04363C14.5984 6.61374 14.2102 6.53106 12.9809 6.49799C12.0589 6.46493 11.2663 6.53106 10.8457 6.67987ZM13.725 7.27512C15.6499 7.65541 17.2189 8.8955 18.0438 10.7143C18.61 11.9544 18.6423 14.0543 18.1247 15.2117C17.5909 16.3856 16.8469 17.3116 15.941 17.9399C15.1322 18.469 13.45 19.0642 13.1912 18.8989C13.1103 18.8658 13.0618 18.6178 13.0618 18.3698C13.0618 17.9564 13.1912 17.8407 14.097 17.3777C16.5233 16.1541 17.4292 13.6905 16.2969 11.4087C15.7954 10.4167 14.5176 9.07738 13.547 8.53174L12.7221 8.06877L11.9618 8.58134C10.2957 9.67262 9.26049 11.1111 8.92081 12.7646C8.50024 14.8479 9.47078 16.5344 11.6545 17.5265C12.35 17.8407 12.4147 17.9233 12.4147 18.4359C12.4147 18.9815 12.3986 18.9981 11.8971 18.9154C10.9266 18.7335 9.43843 17.9233 8.71052 17.1793C8.32231 16.7825 7.78851 16.0053 7.54588 15.4597C7.14149 14.6164 7.07679 14.2692 7.07679 13.0622C7.07679 11.8552 7.14149 11.5079 7.56206 10.6316C8.33849 8.92857 9.92369 7.63888 11.6383 7.29165C12.6088 7.09324 12.7544 7.09324 13.725 7.27512ZM12.4147 10.6647C12.4147 11.4418 12.3824 12.0701 12.3339 12.0701C12.1236 12.0701 10.4737 11.1607 10.4737 11.0284C10.4737 10.8631 12.0912 9.25926 12.2853 9.25926C12.35 9.25926 12.4147 9.88757 12.4147 10.6647ZM13.9838 9.78836C14.6308 10.3671 15.1484 10.9458 15.1484 11.0781C15.1484 11.1607 13.3529 12.0701 13.2073 12.0701C13.175 12.0701 13.1426 11.4418 13.1426 10.6647C13.1426 9.88757 13.1912 9.25926 13.2559 9.25926C13.3206 9.25926 13.6441 9.50727 13.9838 9.78836ZM15.9734 12.8638C15.9734 13.1614 15.7307 13.3433 14.5823 13.8889C13.8058 14.2527 13.1588 14.5503 13.1265 14.5503C13.1103 14.5503 13.1103 14.17 13.1265 13.707L13.175 12.8472L14.372 12.2355L15.569 11.6237L15.7631 12.0536C15.8763 12.2851 15.9572 12.6488 15.9734 12.8638ZM11.331 12.3347L12.4147 12.9134V13.7566C12.4147 14.2031 12.35 14.5503 12.2853 14.5172C12.2206 14.4842 11.5736 14.1865 10.8457 13.8228C9.84282 13.3433 9.55166 13.1283 9.61636 12.9134C9.84282 12.2024 10.0369 11.7394 10.134 11.7394C10.1987 11.7394 10.7325 12.004 11.331 12.3347ZM11.0722 14.633L12.3986 15.2944L12.4147 16.1541C12.4147 16.6336 12.3824 17.0305 12.35 17.0305C12.3015 17.0305 11.9942 16.8651 11.6545 16.6667C10.8619 16.2203 10.1825 15.5754 9.90752 15.0463C9.61636 14.4511 9.4546 13.8393 9.60018 13.922C9.68106 13.9551 10.3443 14.2857 11.0722 14.633ZM15.9087 14.4676C15.7631 15.0629 14.7926 16.1211 13.9191 16.6171C13.5147 16.8486 13.1588 17.0305 13.1265 17.0305C13.1103 17.0305 13.1103 16.6502 13.1265 16.1707L13.175 15.3274L14.5337 14.633C15.2778 14.2527 15.9248 13.9716 15.9572 13.9881C15.9895 14.0212 15.9572 14.2361 15.9087 14.4676Z" fill="#3B4E42"/>
<path d="M5.15196 2.62892C5.03873 2.7116 4.97402 2.91001 5.00637 3.07536C5.07108 3.48872 5.83133 3.50525 5.91221 3.10842C5.97691 2.77773 5.44312 2.44704 5.15196 2.62892Z" fill="#3B4E42"/>
<path d="M19.7098 2.69514C19.4348 3.04236 19.6612 3.50533 20.0818 3.43919C20.3244 3.40612 20.4215 3.27384 20.4215 2.97622C20.4215 2.51326 20.0009 2.34791 19.7098 2.69514Z" fill="#3B4E42"/>
<path d="M20.6806 3.60436C20.4864 3.98465 20.6967 4.34841 21.0849 4.26574C21.457 4.1996 21.5864 3.65396 21.2791 3.45555C20.9717 3.2406 20.8585 3.27367 20.6806 3.60436Z" fill="#3B4E42"/>
<path d="M4.00342 3.78613C4.00342 4.26563 4.37546 4.49711 4.73132 4.23256C5.13571 3.93494 4.9416 3.47197 4.40781 3.47197C4.11665 3.47197 4.00342 3.55464 4.00342 3.78613Z" fill="#3B4E42"/>
<path d="M3.19482 4.54667C3.01689 4.76162 3.01689 4.86083 3.24335 5.07578C3.58304 5.423 4.03596 5.22459 3.97125 4.76162C3.90655 4.29865 3.48599 4.18291 3.19482 4.54667Z" fill="#3B4E42"/>
<path d="M21.5378 4.54702C21.4083 4.89425 21.5701 5.29108 21.8451 5.29108C22.1686 5.29108 22.4921 4.84465 22.3789 4.54702C22.2657 4.23287 21.651 4.21633 21.5378 4.54702Z" fill="#3B4E42"/>
<path d="M2.40203 5.5224C2.12704 5.85309 2.36968 6.31605 2.77407 6.24991C3.16228 6.20031 3.32404 5.63814 3.00053 5.43972C2.70937 5.24131 2.61231 5.25784 2.40203 5.5224Z" fill="#3B4E42"/>
<path d="M22.3468 5.52236C22.1204 6.11761 22.5571 6.46483 23.0909 6.11761C23.285 6.00186 23.285 5.90266 23.1556 5.67117C22.913 5.27435 22.46 5.20821 22.3468 5.52236Z" fill="#3B4E42"/>
<path d="M1.64178 6.69645C1.57708 6.84526 1.64178 7.07675 1.78736 7.22556C2.12705 7.57278 2.57996 7.37437 2.51526 6.9114C2.45056 6.44844 1.78736 6.28309 1.64178 6.69645Z" fill="#3B4E42"/>
<path d="M23.0422 6.564C22.8319 6.76242 22.929 7.24192 23.204 7.34113C23.5437 7.4734 23.9804 7.06004 23.851 6.71281C23.7539 6.44826 23.2363 6.34905 23.0422 6.564Z" fill="#3B4E42"/>
<path d="M1.15665 7.85379C1.02724 8.20101 1.189 8.59784 1.46398 8.59784C1.59339 8.59784 1.7875 8.4821 1.90072 8.34982C2.06248 8.15141 2.06248 8.0522 1.90072 7.85379C1.7875 7.72151 1.59339 7.60577 1.46398 7.60577C1.35075 7.60577 1.20517 7.72151 1.15665 7.85379Z" fill="#3B4E42"/>
<path d="M23.6405 7.85379C23.5111 8.20101 23.6729 8.59784 23.9479 8.59784C24.2876 8.59784 24.5625 8.18448 24.4493 7.87032C24.3199 7.53963 23.7538 7.5231 23.6405 7.85379Z" fill="#3B4E42"/>
<path d="M0.719675 9.02769C0.654972 9.09383 0.606445 9.29224 0.606445 9.45759C0.606445 9.70561 0.703499 9.77174 1.05936 9.72214C1.3667 9.68907 1.4961 9.57333 1.4961 9.34185C1.4961 9.01116 0.962308 8.79621 0.719675 9.02769Z" fill="#3B4E42"/>
<path d="M24.0289 9.12682C23.8833 9.50711 24.0774 9.75513 24.4818 9.75513C24.7891 9.75513 24.87 9.67245 24.87 9.34176C24.87 9.01107 24.7891 8.9284 24.4818 8.9284C24.2715 8.9284 24.0612 9.02761 24.0289 9.12682Z" fill="#3B4E42"/>
<path d="M0.444667 10.334C0.153507 10.6812 0.379965 11.1111 0.800531 11.045C1.26962 10.9788 1.36668 10.4828 0.962287 10.2678C0.719653 10.1356 0.590248 10.1521 0.444667 10.334Z" fill="#3B4E42"/>
<path d="M24.4816 10.3503C24.1581 10.681 24.336 11.0778 24.8051 11.0778C25.1124 11.0778 25.1933 10.9951 25.1933 10.681C25.1933 10.2015 24.8051 10.0196 24.4816 10.3503Z" fill="#3B4E42"/>
<path d="M0.234552 11.6899C0.0404444 11.8718 0.121322 12.3678 0.347781 12.4505C0.687468 12.5827 1.15656 12.1694 1.04333 11.8387C0.946278 11.5741 0.428659 11.4749 0.234552 11.6899Z" fill="#3B4E42"/>
<path d="M24.5466 11.9707C24.5466 12.4337 24.9025 12.6155 25.2745 12.351C25.6304 12.0699 25.4201 11.5739 24.9348 11.5739C24.6275 11.5739 24.5466 11.6565 24.5466 11.9707Z" fill="#3B4E42"/>
<path d="M0.121317 13.1447C-0.040439 13.3431 -0.040439 13.4423 0.121317 13.6408C0.525707 14.1368 1.20508 13.7565 0.913921 13.1943C0.719814 12.8306 0.396302 12.814 0.121317 13.1447Z" fill="#3B4E42"/>
<path d="M24.6112 13.145C24.4656 13.5253 24.6597 13.889 25.0156 13.889C25.3876 13.889 25.5817 13.4261 25.3391 13.1285C25.0965 12.8308 24.7244 12.8308 24.6112 13.145Z" fill="#3B4E42"/>
<path d="M0.347691 14.451C-0.0405236 14.7486 0.169759 15.2446 0.638851 15.1785C0.86531 15.1454 1.02707 14.9966 1.05942 14.7817C1.12412 14.3518 0.735905 14.1699 0.347691 14.451Z" fill="#3B4E42"/>
<path d="M24.5466 14.4677C24.2716 14.7984 24.4657 15.2117 24.8701 15.2117C25.048 15.2117 25.2421 15.096 25.2907 14.9637C25.3877 14.7157 25.1127 14.2197 24.8701 14.2197C24.8054 14.2197 24.6598 14.3354 24.5466 14.4677Z" fill="#3B4E42"/>
<path d="M0.606533 15.7906C0.315372 16.1378 0.54183 16.5677 0.962396 16.5016C1.43149 16.4354 1.52854 15.9394 1.12415 15.7244C0.881518 15.5922 0.752113 15.6087 0.606533 15.7906Z" fill="#3B4E42"/>
<path d="M24.3038 15.8069C24.0127 16.1211 24.2391 16.5344 24.7082 16.5344C25.0964 16.5344 25.2258 16.1045 24.9347 15.7904C24.6273 15.4762 24.6273 15.4762 24.3038 15.8069Z" fill="#3B4E42"/>
<path d="M0.929896 17.0967C0.638736 17.4605 0.849018 17.8904 1.28576 17.8243C1.56074 17.7912 1.6578 17.6589 1.6578 17.3613C1.6578 16.8818 1.23723 16.733 0.929896 17.0967Z" fill="#3B4E42"/>
<path d="M23.8994 17.1132C23.7215 17.3281 23.7215 17.4274 23.9479 17.6423C24.2876 17.9895 24.7405 17.7911 24.6758 17.3281C24.6111 16.8652 24.1906 16.7494 23.8994 17.1132Z" fill="#3B4E42"/>
<path d="M1.52834 18.2209C1.17247 18.4193 1.17247 18.7996 1.54451 18.998C1.90038 19.1964 2.22389 18.9484 2.22389 18.502C2.22389 18.1547 1.8842 18.0059 1.52834 18.2209Z" fill="#3B4E42"/>
<path d="M23.4141 18.2706C23.123 18.6178 23.3494 19.0477 23.77 18.9815C24.2391 18.9154 24.3362 18.4194 23.9318 18.2044C23.6891 18.0721 23.5597 18.0887 23.4141 18.2706Z" fill="#3B4E42"/>
<path d="M2.06246 19.4279C1.7713 19.7751 1.98159 20.205 2.41833 20.1389C2.83889 20.0893 3.01683 19.5437 2.67714 19.3287C2.38598 19.1303 2.28892 19.1468 2.06246 19.4279Z" fill="#3B4E42"/>
<path d="M22.767 19.4278C22.4921 19.7585 22.6862 20.1719 23.0905 20.1719C23.2685 20.1719 23.4626 20.0561 23.5111 19.9239C23.6082 19.6758 23.3332 19.1798 23.0905 19.1798C23.0258 19.1798 22.8803 19.2955 22.767 19.4278Z" fill="#3B4E42"/>
<path d="M2.77408 20.5852C2.64467 20.9324 2.80643 21.3292 3.08141 21.3292C3.4211 21.3292 3.69609 20.9159 3.58286 20.6017C3.45345 20.271 2.88731 20.2545 2.77408 20.5852Z" fill="#3B4E42"/>
<path d="M21.9909 20.5356C21.8777 20.6513 21.8615 20.8167 21.9747 21.0316C22.1688 21.3954 22.4923 21.4119 22.7673 21.0812C23.1394 20.6183 22.4276 20.0892 21.9909 20.5356Z" fill="#3B4E42"/>
<path d="M3.63132 21.4452C3.42104 21.6436 3.5181 22.1231 3.79308 22.2223C4.13277 22.3546 4.56951 21.9412 4.4401 21.594C4.34305 21.3294 3.82543 21.2302 3.63132 21.4452Z" fill="#3B4E42"/>
<path d="M21.1012 21.5607C20.9718 21.8914 21.4085 22.3379 21.732 22.2056C22.0879 22.0733 21.9423 21.4285 21.5379 21.3623C21.3438 21.3293 21.1497 21.4285 21.1012 21.5607Z" fill="#3B4E42"/>
<path d="M4.55338 22.4039C4.42397 22.7511 4.58573 23.1479 4.86071 23.1479C4.99012 23.1479 5.18422 23.0322 5.29745 22.8999C5.45921 22.7015 5.45921 22.6023 5.29745 22.4039C5.18422 22.2716 4.99012 22.1559 4.86071 22.1559C4.74748 22.1559 4.6019 22.2716 4.55338 22.4039Z" fill="#3B4E42"/>
<path d="M20.2438 22.4039C20.1144 22.7511 20.2762 23.1479 20.5511 23.1479C20.6805 23.1479 20.8747 23.0322 20.9879 22.8999C21.1496 22.7015 21.1496 22.6023 20.9879 22.4039C20.8747 22.2716 20.6805 22.1559 20.5511 22.1559C20.4379 22.1559 20.2923 22.2716 20.2438 22.4039Z" fill="#3B4E42"/>
<path d="M5.57249 23.0985C5.3622 23.297 5.45926 23.7765 5.73424 23.8757C6.07393 24.0079 6.51067 23.5946 6.38127 23.2474C6.28421 22.9828 5.76659 22.8836 5.57249 23.0985Z" fill="#3B4E42"/>
<path d="M19.1438 23.2475C18.9983 23.6113 19.4188 24.0577 19.7747 23.9089C19.9364 23.8593 20.0173 23.6609 19.985 23.4459C19.9203 22.9664 19.3056 22.8342 19.1438 23.2475Z" fill="#3B4E42"/>
<path d="M6.65616 23.8923C6.52675 24.2395 6.68851 24.6364 6.96349 24.6364C7.28701 24.6364 7.61052 24.1899 7.49729 23.8923C7.38406 23.5781 6.76939 23.5616 6.65616 23.8923Z" fill="#3B4E42"/>
<path d="M18.1409 23.8758C17.9953 24.2726 18.2056 24.6695 18.513 24.6033C18.7071 24.5703 18.8041 24.4049 18.8041 24.1404C18.8041 23.6609 18.2865 23.4625 18.1409 23.8758Z" fill="#3B4E42"/>
<path d="M7.88546 24.3882C7.5943 24.7355 7.80458 25.1654 8.24133 25.0992C8.66189 25.0496 8.83982 24.504 8.50014 24.289C8.20897 24.0906 8.11192 24.1072 7.88546 24.3882Z" fill="#3B4E42"/>
<path d="M16.9602 24.3552C16.6853 24.7025 16.9117 25.1654 17.3323 25.0993C17.5749 25.0662 17.672 24.9339 17.672 24.6363C17.672 24.1734 17.2514 24.008 16.9602 24.3552Z" fill="#3B4E42"/>
<path d="M9.08267 24.8841C8.95327 25.2313 9.11502 25.6281 9.39001 25.6281C9.7297 25.6281 10.0047 25.2148 9.89145 24.9006C9.76205 24.5699 9.1959 24.5534 9.08267 24.8841Z" fill="#3B4E42"/>
<path d="M15.7145 24.8841C15.5851 25.2313 15.7469 25.6281 16.0218 25.6281C16.3615 25.6281 16.6365 25.2148 16.5233 24.9006C16.3939 24.5699 15.8277 24.5534 15.7145 24.8841Z" fill="#3B4E42"/>
<path d="M10.5222 24.9171C10.231 25.0163 10.2634 25.7439 10.5546 25.8596C10.684 25.9092 10.8942 25.8265 11.0236 25.6943C11.4119 25.2974 11.0398 24.7352 10.5222 24.9171Z" fill="#3B4E42"/>
<path d="M14.5661 24.9171C14.275 25.0163 14.3073 25.7439 14.5985 25.8596C14.7279 25.9092 14.9382 25.8265 15.0676 25.6943C15.4558 25.2974 15.0838 24.7352 14.5661 24.9171Z" fill="#3B4E42"/>
<path d="M11.8 25.1653C11.3471 25.6283 11.8324 26.2731 12.35 25.8763C12.5926 25.6944 12.625 25.5787 12.4794 25.3637C12.253 24.9834 12.0427 24.9173 11.8 25.1653Z" fill="#3B4E42"/>
<path d="M13.094 25.2482C12.8837 25.6781 13.0293 25.9592 13.4822 25.9592C13.7895 25.9592 13.8704 25.8765 13.8704 25.5623C13.8704 25.3474 13.7572 25.1159 13.6116 25.0663C13.2558 24.934 13.2558 24.934 13.094 25.2482Z" fill="#3B4E42"/>
<path d="M35.1458 12.0099C33.4003 16.557 31.8236 20.586 31.6547 20.9313C31.4295 21.4493 31.9926 21.6796 33.344 21.6796C34.9769 21.6796 35.371 21.4493 35.6526 20.2406C35.9904 18.8593 36.2157 18.8017 40.2135 18.8017C44.2114 18.8017 44.4366 18.8593 44.7745 20.2406C45.056 21.4493 45.4502 21.6796 47.252 21.6796H49.3354L45.8443 12.8733L42.3532 4.12456L40.3825 3.95189L38.3554 3.77921L35.1458 12.0099ZM42.5222 14.4849C42.8037 15.636 42.6348 15.7512 40.2698 15.7512C37.3981 15.7512 37.3418 15.6936 38.468 12.6431C38.9184 11.4343 39.4252 9.93785 39.6505 9.30472C39.9883 8.32625 40.2135 8.49892 41.1145 10.6861C41.7338 12.0675 42.3532 13.7366 42.5222 14.4849Z" fill="#3B4E42"/>
<path d="M51.1936 12.7582V21.6796H53.1644H55.1352V18.9168V16.2116H59.0204C62.1174 16.2116 63.2998 15.9238 64.5386 15.0029C66.3968 13.564 67.1288 10.7437 66.3405 7.69312C65.5522 4.64257 63.4688 3.83677 56.5429 3.83677H51.1936V12.7582ZM62.3426 7.9809C63.4124 9.07449 63.1872 11.7797 61.9484 12.4704C61.3291 12.7582 59.5835 13.046 58.0069 13.046H55.1352V10.1681V7.29022H58.401C60.2029 7.29022 61.9484 7.578 62.3426 7.9809Z" fill="#3B4E42"/>
<path d="M69.0996 12.7582L68.9307 21.6796H71.0704H73.2664L72.8722 18.8017L72.4781 15.9238H74.7867C76.9827 15.9238 77.1516 16.0389 78.503 18.8017C79.8544 21.5069 80.0233 21.6796 82.1631 21.6796H84.4154L82.3883 18.4564C80.4738 15.3483 80.4175 15.2331 81.6 14.9453C83.8523 14.3122 85.0348 10.2256 83.8523 7.05999C83.0077 4.64257 80.5864 3.83677 74.6178 3.83677H69.2685L69.0996 12.7582ZM79.5729 7.63556C80.6427 8.03846 80.7554 10.8012 79.7981 11.7797C79.404 12.1826 77.6584 12.4704 75.8566 12.4704H72.5907V9.8803V7.29022H75.6313C77.3206 7.29022 79.0661 7.46289 79.5729 7.63556Z" fill="#3B4E42"/>
<path d="M87.2307 12.7582V21.6796H89.2015H91.1723V12.7582V3.83677H89.2015H87.2307V12.7582Z" fill="#3B4E42"/>
<path d="M94.5508 12.7582V21.6796H100.914H107.333L107.051 19.9528L106.826 18.2261H102.659H98.4923V11.0314V3.83677H96.5216H94.5508V12.7582Z" fill="#3B4E42"/>
<path d="M117.693 5.33313C116.511 6.88718 116.286 8.49879 117.018 10.3982C117.299 11.1464 116.905 11.9522 115.497 13.3912C113.752 15.1754 113.583 15.6359 113.864 17.5353C114.428 20.9887 115.948 21.7945 120.959 21.4492C126.759 21.0463 126.59 21.0463 129.349 21.4492C131.77 21.7945 131.827 21.7945 131.601 20.1829C131.489 18.8591 131.095 18.4562 129.912 18.3411C129.011 18.226 128.336 18.1109 128.336 17.9958C128.336 17.9382 128.842 16.7871 129.462 15.4632C130.926 12.3551 130.869 11.4918 129.124 11.1464C127.66 10.8586 127.209 11.4918 126.309 15.0603C125.858 16.9022 125.52 16.8446 123.662 14.8877L122.198 13.3336L124.112 11.722C125.745 10.3982 126.083 9.76505 126.083 7.92321C126.083 4.98779 124.732 3.83664 121.41 3.83664C119.326 3.83664 118.651 4.12442 117.693 5.33313ZM123.099 7.57787C123.38 8.44123 121.86 10.7435 121.016 10.7435C120.396 10.7435 119.777 7.92321 120.171 7.29008C120.734 6.36916 122.705 6.59939 123.099 7.57787ZM120.959 16.4417C122.93 18.4562 123.099 18.8016 122.142 19.0893C120.678 19.5498 118.256 18.8591 117.693 17.7655C117.243 16.9597 117.975 14.197 118.594 14.197C118.651 14.197 119.777 15.233 120.959 16.4417Z" fill="#3B4E42"/>
<path d="M143.145 4.98777C140.667 6.54182 139.597 8.90167 139.597 12.9307C139.597 18.9742 142.694 21.9672 148.944 21.9096C155.138 21.8521 157.841 18.9742 157.785 12.4127C157.728 8.55633 156.827 6.65693 154.068 4.98777C151.591 3.37616 145.622 3.43372 143.145 4.98777ZM151.591 7.80808C154.294 8.84412 154.969 15.1754 152.661 17.1899C151.197 18.5138 148.719 18.9167 146.579 18.226C144.158 17.4202 143.539 16.2115 143.539 12.5278C143.539 10.1104 143.764 9.47725 145.003 8.49877C146.579 7.23251 149.338 6.94472 151.591 7.80808Z" fill="#3B4E42"/>
<path d="M162.74 10.6285C161.332 14.3122 159.756 18.3412 159.192 19.4924L158.179 21.6796H160.15C161.783 21.6796 162.233 21.3918 162.684 20.2406C163.19 18.8593 163.472 18.8017 167.413 18.8017C171.355 18.8017 171.58 18.8593 171.918 20.2406C172.2 21.4493 172.594 21.6796 174.283 21.6796C175.691 21.6796 176.254 21.4493 176.029 20.9313C175.86 20.586 174.339 16.557 172.538 12.0099L169.328 3.83677H167.245H165.217L162.74 10.6285ZM168.765 11.8372C169.441 13.6791 170.004 15.2907 170.004 15.4634C170.004 15.5785 168.709 15.6936 167.188 15.6936C164.823 15.6936 164.429 15.5785 164.711 14.8302C164.936 14.3122 165.499 12.7006 166.006 11.2041C166.513 9.70763 167.019 8.44136 167.188 8.44136C167.357 8.44136 168.033 9.99541 168.765 11.8372Z" fill="#3B4E42"/>
<path d="M178.45 12.7582V21.6796H180.42C182.335 21.6796 182.391 21.622 182.391 19.3773C182.391 17.1901 183.686 14.1971 184.587 14.1971C184.813 14.1971 186.051 15.8663 187.346 17.9383C189.542 21.5069 189.768 21.6796 191.851 21.6796H194.103L190.781 16.557C188.923 13.7366 187.459 11.2041 187.459 11.0314C187.459 10.8012 188.754 9.07449 190.331 7.23266L193.202 3.83677H191.006C189.036 3.83677 188.641 4.12456 185.77 7.80823C184.081 10.053 182.504 11.8372 182.335 11.8372C182.11 11.8948 182.11 10.053 182.279 7.86579L182.56 3.83677H180.477H178.45V12.7582Z" fill="#3B4E42"/>
</svg>
