<svg width="336" height="154" viewBox="0 0 336 154" fill="none" xmlns="http://www.w3.org/2000/svg">
<path d="M5.54883 142.682H6.09082C6.74512 142.682 7.22363 142.613 7.52637 142.477C7.8291 142.33 8.05371 142.076 8.2002 141.715C8.29785 141.441 8.36621 140.777 8.40527 139.723C8.44434 138.668 8.46387 136.715 8.46387 133.863V125.484H5.94434C4.41113 125.484 3.36133 125.699 2.79492 126.129C2.22852 126.559 1.83789 127.384 1.62305 128.604L0.246094 128.312C0.470703 127.345 0.641602 126.422 0.758789 125.543C0.885742 124.654 0.963867 123.78 0.993164 122.921C1.36426 123.048 1.88672 123.141 2.56055 123.199C3.23438 123.248 4.37207 123.272 5.97363 123.272H9.21094H11.042H14.7627C16.5596 123.272 17.8096 123.248 18.5127 123.199C19.2256 123.141 19.748 123.043 20.0801 122.906V123.36C20.0801 124.122 20.1094 124.913 20.168 125.733C20.2363 126.544 20.334 127.403 20.4609 128.312L19.1426 128.517C18.9766 127.325 18.6396 126.524 18.1318 126.114C17.624 125.694 16.623 125.484 15.1289 125.484H14.7627H12.5508C12.5215 127.047 12.502 128.585 12.4922 130.099C12.4824 131.612 12.4775 133.375 12.4775 135.387V138.126C12.4775 139.415 12.5068 140.318 12.5654 140.836C12.624 141.354 12.7168 141.739 12.8438 141.993C12.9902 142.237 13.2197 142.413 13.5322 142.521C13.8447 142.628 14.2842 142.682 14.8506 142.682H15.3633V144C15.1191 143.99 14.7578 143.976 14.2793 143.956C12.3652 143.868 11.0566 143.824 10.3535 143.824C9.8457 143.824 9.19141 143.839 8.39062 143.868C7.59961 143.897 6.65234 143.941 5.54883 144V142.682ZM27.4922 121.324C27.4824 121.832 27.4629 122.599 27.4336 123.624C27.3359 127.071 27.2773 129.669 27.2578 131.417C28.3809 130.597 29.3672 130.006 30.2168 129.645C31.0762 129.273 31.8916 129.088 32.6631 129.088C34.1279 129.088 35.2314 129.532 35.9736 130.421C36.7256 131.3 37.1016 132.618 37.1016 134.376C37.1016 134.679 37.0918 135.426 37.0723 136.617C37.0527 137.799 37.043 138.819 37.043 139.679V140.104C37.043 141.314 37.1504 142.062 37.3652 142.345C37.5801 142.628 38 142.77 38.625 142.77H38.9033V144C38.0342 143.941 37.292 143.897 36.6768 143.868C36.0615 143.839 35.5635 143.824 35.1826 143.824C34.7725 143.824 34.2646 143.839 33.6592 143.868C33.0635 143.897 32.3701 143.941 31.5791 144V142.77H31.7549C32.9658 142.77 33.5859 141.554 33.6152 139.122C33.6152 139.034 33.6152 138.971 33.6152 138.932L33.6445 136.354V135.899C33.6445 134.21 33.4443 133.062 33.0439 132.457C32.6533 131.852 31.9941 131.549 31.0664 131.549C30.5586 131.549 30.0166 131.651 29.4404 131.856C28.8643 132.062 28.166 132.408 27.3457 132.896L27.2871 136.559V138.653V139.986C27.2871 141.197 27.3945 141.964 27.6094 142.286C27.8242 142.608 28.2393 142.77 28.8545 142.77H29.0596V144C28.2002 143.941 27.4629 143.897 26.8477 143.868C26.2324 143.839 25.7295 143.824 25.3389 143.824C24.8408 143.824 24.2842 143.839 23.6689 143.868C23.0537 143.897 22.3701 143.941 21.6182 144V142.784C21.6768 142.784 21.7402 142.789 21.8086 142.799C21.8867 142.799 21.9941 142.799 22.1309 142.799C22.8047 142.799 23.2637 142.579 23.5078 142.14C23.752 141.7 23.874 140.689 23.874 139.107V136.471V135.899L23.9033 127.594V126.627C23.9033 125.348 23.8203 124.552 23.6543 124.239C23.4883 123.917 23.1709 123.756 22.7021 123.756C22.4775 123.756 22.3018 123.761 22.1748 123.771C22.0576 123.78 21.9404 123.79 21.8232 123.8L21.7061 122.643C22.6338 122.516 23.5762 122.345 24.5332 122.13C25.5 121.905 26.4863 121.637 27.4922 121.324ZM49.0693 137.013C48.8545 137.071 48.542 137.159 48.1318 137.276C45.3389 138.048 43.9424 138.961 43.9424 140.016C43.9424 140.602 44.1328 141.095 44.5137 141.495C44.8945 141.886 45.373 142.081 45.9492 142.081C46.3203 142.081 46.7402 141.988 47.209 141.803C47.6875 141.617 48.3076 141.3 49.0693 140.851V137.013ZM54.9141 141.51L55.4561 142.623C54.5674 143.209 53.7666 143.648 53.0537 143.941C52.3506 144.225 51.7207 144.366 51.1641 144.366C50.4902 144.366 49.9727 144.195 49.6113 143.854C49.2598 143.502 49.0547 142.975 48.9961 142.271C47.9316 143.014 47.0332 143.551 46.3008 143.883C45.5684 144.205 44.9092 144.366 44.3232 144.366C43.2979 144.366 42.4238 143.971 41.7012 143.18C40.9785 142.379 40.6172 141.422 40.6172 140.309C40.6172 138.434 42.7119 137.013 46.9014 136.046C47.8096 135.831 48.5225 135.66 49.04 135.533C49.0498 135.289 49.0547 135.055 49.0547 134.83C49.0645 134.596 49.0693 134.371 49.0693 134.156C49.0693 133.111 48.8643 132.35 48.4541 131.871C48.0537 131.393 47.4092 131.153 46.5205 131.153C45.9443 131.153 45.4463 131.271 45.0264 131.505C44.6162 131.739 44.3965 132.013 44.3672 132.325C44.3574 132.374 44.3525 132.438 44.3525 132.516C44.2939 133.492 43.6787 133.98 42.5068 133.98C42.0674 133.98 41.7305 133.907 41.4961 133.761C41.2617 133.614 41.1445 133.399 41.1445 133.116C41.1445 132.335 41.8623 131.461 43.2979 130.494C44.7432 129.518 46.2568 129.029 47.8389 129.029C49.3818 129.029 50.5537 129.435 51.3545 130.245C52.1553 131.046 52.5557 132.223 52.5557 133.775C52.5557 134.244 52.5166 135.216 52.4385 136.69C52.3701 138.155 52.3359 139.391 52.3359 140.396C52.3359 140.992 52.4141 141.422 52.5703 141.686C52.7266 141.949 52.9707 142.081 53.3027 142.081C53.4883 142.081 53.7178 142.032 53.9912 141.935C54.2646 141.837 54.5723 141.695 54.9141 141.51ZM61.8574 129L61.623 131.402C62.7949 130.562 63.7959 129.952 64.626 129.571C65.4561 129.19 66.1934 129 66.8379 129C68.3711 129 69.5234 129.449 70.2949 130.348C71.0762 131.236 71.4668 132.555 71.4668 134.303C71.4668 134.635 71.457 135.406 71.4375 136.617C71.418 137.818 71.4082 138.858 71.4082 139.737C71.4082 141.173 71.5107 142.037 71.7158 142.33C71.9307 142.623 72.3555 142.77 72.9902 142.77H73.2979L73.2686 144C72.3994 143.941 71.6572 143.897 71.042 143.868C70.4268 143.839 69.9287 143.824 69.5479 143.824C69.1377 143.824 68.6299 143.839 68.0244 143.868C67.4287 143.897 66.7354 143.941 65.9443 144V142.77H66.1201C67.3311 142.77 67.9512 141.549 67.9805 139.107C67.9805 139.029 67.9805 138.971 67.9805 138.932V135.841C67.9805 134.151 67.7852 133.014 67.3945 132.428C67.0039 131.842 66.3398 131.549 65.4023 131.549C64.8945 131.549 64.3477 131.656 63.7617 131.871C63.1758 132.076 62.5312 132.398 61.8281 132.838C61.7891 133.717 61.7598 134.63 61.7402 135.577C61.7207 136.524 61.7109 137.54 61.7109 138.624V139.825C61.7109 141.144 61.8135 141.964 62.0186 142.286C62.2334 142.608 62.6533 142.77 63.2783 142.77H63.5127V144C62.6924 143.941 61.9746 143.897 61.3594 143.868C60.7441 143.839 60.2217 143.824 59.792 143.824C59.3721 143.824 58.8545 143.839 58.2393 143.868C57.624 143.897 56.9111 143.941 56.1006 144V142.77H56.4375C57.6484 142.77 58.2637 141.544 58.2832 139.093C58.2832 138.8 58.2881 138.575 58.2979 138.419L58.3271 135.387V134.098C58.3271 132.994 58.2393 132.281 58.0635 131.959C57.8975 131.627 57.585 131.461 57.126 131.461C57.0381 131.461 56.8428 131.476 56.54 131.505C56.4814 131.515 56.4375 131.52 56.4082 131.52L56.3203 130.377C57.1309 130.25 57.9854 130.074 58.8838 129.85C59.7822 129.625 60.7734 129.342 61.8574 129ZM86.0127 144V143.736C86.0127 143.521 85.9395 143.287 85.793 143.033C85.6562 142.77 85.3584 142.374 84.8994 141.847L80.2852 136.324C82.0625 134.674 83.3027 133.478 84.0059 132.735C84.709 131.993 85.0605 131.51 85.0605 131.285C85.0605 131.1 84.9873 130.968 84.8408 130.89C84.7041 130.812 84.4648 130.772 84.123 130.772H83.7422V129.483C84.6504 129.542 85.3438 129.581 85.8223 129.601C86.3008 129.62 86.6963 129.63 87.0088 129.63C87.4385 129.63 87.9268 129.62 88.4736 129.601C89.0303 129.571 89.6797 129.532 90.4219 129.483V130.758C90.3828 130.758 90.334 130.758 90.2754 130.758C90.2266 130.748 90.1484 130.743 90.041 130.743C88.9961 130.743 87.3604 131.778 85.1338 133.849C84.4893 134.444 83.9814 134.908 83.6104 135.24L88.3271 140.543C88.4248 140.66 88.5615 140.821 88.7373 141.026C89.7432 142.188 90.6367 142.77 91.418 142.77C91.4473 142.77 91.4912 142.765 91.5498 142.755C91.6182 142.745 91.6719 142.74 91.7109 142.74L91.6816 144C91.0957 143.941 90.5342 143.897 89.9971 143.868C89.46 143.839 88.9424 143.824 88.4443 143.824C88.3076 143.824 88.0488 143.839 87.668 143.868C87.2871 143.888 86.7354 143.932 86.0127 144ZM74.7041 142.74H74.9678C75.417 142.74 75.7832 142.672 76.0664 142.535C76.3496 142.389 76.5352 142.188 76.623 141.935C76.8281 141.368 76.9453 138.683 76.9746 133.878C76.9844 133.556 76.9893 133.312 76.9893 133.146L77.0186 130.436V128.106V127.081C77.0186 125.587 76.9258 124.659 76.7402 124.298C76.5645 123.937 76.2178 123.756 75.7002 123.756C75.6221 123.756 75.5195 123.766 75.3926 123.785C75.2754 123.795 75.124 123.81 74.9385 123.829L74.7041 122.613C75.7393 122.477 76.7402 122.301 77.707 122.086C78.6836 121.871 79.6406 121.617 80.5781 121.324C80.4902 124.82 80.417 127.843 80.3584 130.392C80.3096 132.94 80.2852 134.786 80.2852 135.929V141.275C80.2852 141.793 80.4072 142.169 80.6514 142.403C80.8955 142.628 81.3057 142.74 81.8818 142.74H82.2041V144C81.3838 143.941 80.6514 143.897 80.0068 143.868C79.3623 143.839 78.8154 143.824 78.3662 143.824C77.79 143.824 77.1992 143.839 76.5938 143.868C75.9883 143.897 75.3584 143.941 74.7041 144V142.74ZM103.972 129.747C103.972 130.362 104.001 130.987 104.06 131.622C104.118 132.247 104.211 132.882 104.338 133.526L102.888 133.805C102.771 132.721 102.448 131.93 101.921 131.432C101.394 130.934 100.627 130.685 99.6211 130.685C98.8301 130.685 98.1855 130.885 97.6875 131.285C97.1992 131.676 96.9551 132.184 96.9551 132.809C96.9551 133.678 98.0928 134.459 100.368 135.152L100.471 135.182C102.17 135.699 103.327 136.271 103.942 136.896C104.567 137.521 104.88 138.37 104.88 139.444C104.88 140.89 104.27 142.086 103.049 143.033C101.828 143.98 100.256 144.454 98.332 144.454C97.5508 144.454 96.7793 144.376 96.0176 144.22C95.2656 144.073 94.5381 143.849 93.835 143.546C93.8447 143.438 93.8496 143.316 93.8496 143.18C93.8594 143.043 93.8643 142.838 93.8643 142.564C93.8643 142.018 93.8398 141.476 93.791 140.938C93.7422 140.401 93.6689 139.874 93.5713 139.356L94.9189 139.02C95.1436 140.357 95.5586 141.329 96.1641 141.935C96.7695 142.53 97.624 142.828 98.7275 142.828C99.665 142.828 100.407 142.618 100.954 142.198C101.511 141.778 101.789 141.207 101.789 140.484C101.789 139.625 100.583 138.79 98.1709 137.979C97.7705 137.843 97.4629 137.74 97.248 137.672C96.0859 137.271 95.251 136.778 94.7432 136.192C94.2354 135.597 93.9814 134.83 93.9814 133.893C93.9814 132.438 94.5283 131.266 95.6221 130.377C96.7158 129.479 98.1807 129.029 100.017 129.029C100.563 129.029 101.159 129.088 101.804 129.205C102.458 129.322 103.181 129.503 103.972 129.747ZM121.799 128.883V129.923H122.766C123.264 129.923 123.762 129.918 124.26 129.908C124.758 129.889 125.261 129.869 125.769 129.85C125.769 129.977 125.764 130.152 125.754 130.377C125.744 130.592 125.739 130.733 125.739 130.802V131.695C125.671 131.695 125.578 131.69 125.461 131.681C124.084 131.612 123.093 131.578 122.487 131.578H121.843C121.823 132.174 121.809 132.804 121.799 133.468C121.799 134.122 121.799 135.074 121.799 136.324C121.799 136.695 121.794 137.188 121.784 137.804C121.774 138.409 121.77 138.824 121.77 139.049C121.77 140.641 121.911 141.666 122.194 142.125C122.478 142.574 123.02 142.799 123.82 142.799C124.006 142.799 124.152 142.799 124.26 142.799C124.377 142.789 124.475 142.779 124.553 142.77L124.567 144C123.659 143.941 122.849 143.897 122.136 143.868C121.433 143.839 120.822 143.824 120.305 143.824C119.836 143.824 119.26 143.839 118.576 143.868C117.902 143.897 117.087 143.941 116.13 144V142.77H116.584C117.277 142.77 117.746 142.564 117.99 142.154C118.234 141.744 118.356 140.851 118.356 139.474C118.356 139.249 118.352 138.834 118.342 138.229C118.332 137.623 118.327 137.125 118.327 136.734V131.607H117.272C117.253 131.607 117.116 131.617 116.862 131.637C116.608 131.646 116.369 131.656 116.145 131.666V130.289C116.613 130.26 117.019 130.182 117.36 130.055C117.702 129.928 118.015 129.737 118.298 129.483C118.366 126.964 119.089 124.981 120.466 123.536C121.853 122.081 123.698 121.354 126.003 121.354C126.95 121.354 127.702 121.534 128.259 121.896C128.815 122.257 129.094 122.745 129.094 123.36C129.094 123.81 128.962 124.176 128.698 124.459C128.444 124.742 128.117 124.884 127.717 124.884C127.355 124.884 126.779 124.674 125.988 124.254C125.207 123.834 124.592 123.624 124.143 123.624C123.293 123.624 122.688 124 122.326 124.752C121.975 125.494 121.799 126.871 121.799 128.883ZM134.719 130.948C133.518 130.948 132.585 131.397 131.921 132.296C131.267 133.185 130.939 134.444 130.939 136.075C130.939 138.058 131.315 139.63 132.067 140.792C132.819 141.954 133.83 142.535 135.1 142.535C136.311 142.535 137.263 142.066 137.956 141.129C138.659 140.191 139.011 138.907 139.011 137.276C139.011 135.333 138.62 133.795 137.839 132.662C137.067 131.52 136.027 130.948 134.719 130.948ZM135.012 129.029C137.307 129.029 139.187 129.737 140.651 131.153C142.116 132.56 142.849 134.342 142.849 136.5C142.849 138.766 142.082 140.66 140.549 142.184C139.025 143.697 137.121 144.454 134.836 144.454C132.551 144.454 130.686 143.741 129.24 142.315C127.795 140.89 127.072 139.063 127.072 136.837C127.072 134.649 127.844 132.804 129.387 131.3C130.939 129.786 132.814 129.029 135.012 129.029ZM150.217 128.912C150.148 129.83 150.095 130.616 150.056 131.271C150.017 131.925 149.992 132.496 149.982 132.984C150.852 131.529 151.599 130.533 152.224 129.996C152.849 129.449 153.532 129.176 154.274 129.176C154.792 129.176 155.241 129.366 155.622 129.747C156.003 130.128 156.193 130.587 156.193 131.124C156.193 131.622 156.071 132.018 155.827 132.311C155.593 132.604 155.275 132.75 154.875 132.75C154.65 132.75 154.338 132.672 153.938 132.516C153.537 132.35 153.22 132.267 152.985 132.267C152.546 132.267 152.106 132.433 151.667 132.765C151.228 133.097 150.715 133.653 150.129 134.435C150.129 134.747 150.124 135.226 150.114 135.87C150.104 136.515 150.1 137.003 150.1 137.335V138.961C150.1 140.65 150.251 141.715 150.554 142.154C150.856 142.584 151.447 142.799 152.326 142.799C152.385 142.799 152.478 142.794 152.604 142.784C152.741 142.774 152.849 142.77 152.927 142.77V144H152.883C150.705 143.863 149.289 143.795 148.635 143.795C148.117 143.795 146.804 143.858 144.694 143.985H144.401V142.74H144.797C145.529 142.74 146.027 142.56 146.291 142.198C146.555 141.837 146.687 140.978 146.687 139.62V137.848V134.669C146.687 133.204 146.594 132.301 146.408 131.959C146.232 131.607 145.896 131.432 145.397 131.432C145.339 131.432 145.231 131.446 145.075 131.476C144.919 131.495 144.792 131.51 144.694 131.52L144.577 130.348C145.505 130.201 146.433 130.011 147.36 129.776C148.288 129.542 149.24 129.254 150.217 128.912ZM165.393 129.483C166.203 129.542 166.892 129.586 167.458 129.615C168.034 129.645 168.508 129.659 168.879 129.659C169.543 129.659 170.183 129.645 170.798 129.615C171.413 129.586 172.033 129.542 172.658 129.483V130.772H172.321C171.843 130.772 171.496 130.841 171.281 130.978C171.076 131.114 170.974 131.334 170.974 131.637C170.974 131.998 171.354 133.185 172.116 135.196C172.878 137.198 173.498 138.883 173.977 140.25C174.201 139.703 174.514 138.941 174.914 137.965C176.486 134.186 177.272 132.037 177.272 131.52C177.272 131.266 177.18 131.075 176.994 130.948C176.818 130.812 176.55 130.743 176.188 130.743H175.705V129.483C176.271 129.542 176.799 129.586 177.287 129.615C177.785 129.645 178.239 129.659 178.649 129.659C179.011 129.659 179.699 129.62 180.715 129.542C181.037 129.513 181.276 129.493 181.433 129.483L181.447 130.772H181.198C180.847 130.772 180.549 130.86 180.305 131.036C180.061 131.212 179.812 131.544 179.558 132.032C179.558 132.032 179.128 132.984 178.269 134.889C177.409 136.793 176.535 138.741 175.646 140.733C175.305 141.515 174.836 142.584 174.24 143.941C171.936 149.205 170.197 151.837 169.025 151.837C168.537 151.837 168.132 151.686 167.81 151.383C167.497 151.09 167.341 150.719 167.341 150.27C167.341 149.625 167.79 149.22 168.688 149.054C169.04 148.995 169.279 148.932 169.406 148.863C169.885 148.619 170.583 147.535 171.501 145.611C171.745 145.084 171.94 144.679 172.087 144.396C171.765 143.604 171.11 141.974 170.124 139.503C169.138 137.022 168.298 134.928 167.604 133.219C167.565 133.111 167.502 132.955 167.414 132.75C166.896 131.432 166.291 130.772 165.598 130.772H165.393V129.483ZM190.09 130.948C188.889 130.948 187.956 131.397 187.292 132.296C186.638 133.185 186.311 134.444 186.311 136.075C186.311 138.058 186.687 139.63 187.438 140.792C188.19 141.954 189.201 142.535 190.471 142.535C191.682 142.535 192.634 142.066 193.327 141.129C194.03 140.191 194.382 138.907 194.382 137.276C194.382 135.333 193.991 133.795 193.21 132.662C192.438 131.52 191.398 130.948 190.09 130.948ZM190.383 129.029C192.678 129.029 194.558 129.737 196.022 131.153C197.487 132.56 198.22 134.342 198.22 136.5C198.22 138.766 197.453 140.66 195.92 142.184C194.396 143.697 192.492 144.454 190.207 144.454C187.922 144.454 186.057 143.741 184.611 142.315C183.166 140.89 182.443 139.063 182.443 136.837C182.443 134.649 183.215 132.804 184.758 131.3C186.311 129.786 188.186 129.029 190.383 129.029ZM205.354 129.103C205.285 130.841 205.231 132.413 205.192 133.819C205.163 135.226 205.148 136.397 205.148 137.335C205.148 139.034 205.349 140.221 205.749 140.895C206.149 141.568 206.818 141.905 207.756 141.905C208.225 141.905 208.752 141.798 209.338 141.583C209.924 141.368 210.554 141.056 211.228 140.646C211.257 139.249 211.276 138.062 211.286 137.086C211.306 136.109 211.315 135.333 211.315 134.757V134.098C211.315 132.887 211.208 132.13 210.993 131.827C210.778 131.524 210.368 131.373 209.763 131.373C209.655 131.373 209.548 131.378 209.44 131.388C209.333 131.388 209.221 131.393 209.104 131.402L209.016 130.23C210.041 130.133 211.042 130.016 212.019 129.879C212.995 129.742 213.952 129.581 214.89 129.396C214.821 131.661 214.772 133.385 214.743 134.566C214.724 135.738 214.714 136.832 214.714 137.848V139.195C214.714 140.465 214.792 141.266 214.948 141.598C215.104 141.92 215.417 142.081 215.886 142.081C216.003 142.081 216.13 142.071 216.267 142.052C216.413 142.032 216.564 142.003 216.721 141.964L216.867 143.165L211.257 144.425V142.169C210.134 142.989 209.172 143.57 208.371 143.912C207.57 144.254 206.794 144.425 206.042 144.425C204.577 144.425 203.483 143.971 202.761 143.062C202.048 142.145 201.691 140.758 201.691 138.902C201.691 138.512 201.691 138.189 201.691 137.936C201.701 137.682 201.711 137.428 201.721 137.174L201.779 135.182C201.779 134.986 201.784 134.737 201.794 134.435C201.804 134.122 201.809 133.902 201.809 133.775C201.809 132.809 201.726 132.159 201.56 131.827C201.394 131.485 201.096 131.314 200.666 131.314C200.48 131.314 200.222 131.329 199.89 131.358C199.851 131.368 199.821 131.373 199.802 131.373L199.714 130.172C200.642 130.055 201.574 129.908 202.512 129.732C203.449 129.547 204.396 129.337 205.354 129.103ZM224.25 128.912C224.182 129.83 224.128 130.616 224.089 131.271C224.05 131.925 224.025 132.496 224.016 132.984C224.885 131.529 225.632 130.533 226.257 129.996C226.882 129.449 227.565 129.176 228.308 129.176C228.825 129.176 229.274 129.366 229.655 129.747C230.036 130.128 230.227 130.587 230.227 131.124C230.227 131.622 230.104 132.018 229.86 132.311C229.626 132.604 229.309 132.75 228.908 132.75C228.684 132.75 228.371 132.672 227.971 132.516C227.57 132.35 227.253 132.267 227.019 132.267C226.579 132.267 226.14 132.433 225.7 132.765C225.261 133.097 224.748 133.653 224.162 134.435C224.162 134.747 224.157 135.226 224.147 135.87C224.138 136.515 224.133 137.003 224.133 137.335V138.961C224.133 140.65 224.284 141.715 224.587 142.154C224.89 142.584 225.48 142.799 226.359 142.799C226.418 142.799 226.511 142.794 226.638 142.784C226.774 142.774 226.882 142.77 226.96 142.77V144H226.916C224.738 143.863 223.322 143.795 222.668 143.795C222.15 143.795 220.837 143.858 218.728 143.985H218.435V142.74H218.83C219.562 142.74 220.061 142.56 220.324 142.198C220.588 141.837 220.72 140.978 220.72 139.62V137.848V134.669C220.72 133.204 220.627 132.301 220.441 131.959C220.266 131.607 219.929 131.432 219.431 131.432C219.372 131.432 219.265 131.446 219.108 131.476C218.952 131.495 218.825 131.51 218.728 131.52L218.61 130.348C219.538 130.201 220.466 130.011 221.394 129.776C222.321 129.542 223.273 129.254 224.25 128.912ZM248.068 130.948C246.867 130.948 245.935 131.397 245.271 132.296C244.616 133.185 244.289 134.444 244.289 136.075C244.289 138.058 244.665 139.63 245.417 140.792C246.169 141.954 247.18 142.535 248.449 142.535C249.66 142.535 250.612 142.066 251.306 141.129C252.009 140.191 252.36 138.907 252.36 137.276C252.36 135.333 251.97 133.795 251.188 132.662C250.417 131.52 249.377 130.948 248.068 130.948ZM248.361 129.029C250.656 129.029 252.536 129.737 254.001 131.153C255.466 132.56 256.198 134.342 256.198 136.5C256.198 138.766 255.432 140.66 253.898 142.184C252.375 143.697 250.471 144.454 248.186 144.454C245.9 144.454 244.035 143.741 242.59 142.315C241.145 140.89 240.422 139.063 240.422 136.837C240.422 134.649 241.193 132.804 242.736 131.3C244.289 129.786 246.164 129.029 248.361 129.029ZM263.566 128.912C263.498 129.83 263.444 130.616 263.405 131.271C263.366 131.925 263.342 132.496 263.332 132.984C264.201 131.529 264.948 130.533 265.573 129.996C266.198 129.449 266.882 129.176 267.624 129.176C268.142 129.176 268.591 129.366 268.972 129.747C269.353 130.128 269.543 130.587 269.543 131.124C269.543 131.622 269.421 132.018 269.177 132.311C268.942 132.604 268.625 132.75 268.225 132.75C268 132.75 267.688 132.672 267.287 132.516C266.887 132.35 266.569 132.267 266.335 132.267C265.896 132.267 265.456 132.433 265.017 132.765C264.577 133.097 264.064 133.653 263.479 134.435C263.479 134.747 263.474 135.226 263.464 135.87C263.454 136.515 263.449 137.003 263.449 137.335V138.961C263.449 140.65 263.601 141.715 263.903 142.154C264.206 142.584 264.797 142.799 265.676 142.799C265.734 142.799 265.827 142.794 265.954 142.784C266.091 142.774 266.198 142.77 266.276 142.77V144H266.232C264.055 143.863 262.639 143.795 261.984 143.795C261.467 143.795 260.153 143.858 258.044 143.985H257.751V142.74H258.146C258.879 142.74 259.377 142.56 259.641 142.198C259.904 141.837 260.036 140.978 260.036 139.62V137.848V134.669C260.036 133.204 259.943 132.301 259.758 131.959C259.582 131.607 259.245 131.432 258.747 131.432C258.688 131.432 258.581 131.446 258.425 131.476C258.269 131.495 258.142 131.51 258.044 131.52L257.927 130.348C258.854 130.201 259.782 130.011 260.71 129.776C261.638 129.542 262.59 129.254 263.566 128.912ZM281.687 132.12C281.149 131.808 280.632 131.578 280.134 131.432C279.636 131.275 279.143 131.197 278.654 131.197C277.326 131.197 276.291 131.637 275.549 132.516C274.816 133.385 274.45 134.625 274.45 136.236C274.45 137.945 274.821 139.312 275.563 140.338C276.306 141.363 277.287 141.876 278.508 141.876C278.938 141.876 279.406 141.788 279.914 141.612C280.432 141.437 281.013 141.163 281.657 140.792L281.687 132.12ZM285.363 121.295C285.305 123.453 285.251 125.689 285.202 128.004C285.153 130.309 285.109 132.765 285.07 135.372V139.078V139.708C285.07 140.929 285.148 141.705 285.305 142.037C285.471 142.369 285.764 142.535 286.184 142.535C286.33 142.535 286.481 142.521 286.638 142.491C286.804 142.452 286.984 142.398 287.18 142.33L287.443 143.487C286.574 143.829 285.686 144.083 284.777 144.249C283.869 144.425 282.907 144.518 281.892 144.527C281.833 144.234 281.784 143.912 281.745 143.561C281.706 143.209 281.672 142.809 281.643 142.359C280.754 143.014 279.929 143.497 279.167 143.81C278.415 144.112 277.683 144.264 276.97 144.264C275.173 144.264 273.693 143.604 272.531 142.286C271.369 140.958 270.788 139.249 270.788 137.159C270.788 134.825 271.516 132.931 272.971 131.476C274.426 130.021 276.32 129.293 278.654 129.293C279.152 129.293 279.655 129.337 280.163 129.425C280.671 129.513 281.208 129.649 281.774 129.835C281.774 129.776 281.779 129.684 281.789 129.557C281.818 128.199 281.833 127.223 281.833 126.627C281.833 125.25 281.735 124.4 281.54 124.078C281.345 123.756 280.983 123.595 280.456 123.595C280.368 123.595 280.251 123.604 280.104 123.624C279.958 123.634 279.777 123.653 279.562 123.683L279.431 122.496C280.349 122.379 281.296 122.223 282.272 122.027C283.259 121.822 284.289 121.578 285.363 121.295ZM302.546 136.192L296.438 136.207C295.393 136.207 294.611 136.217 294.094 136.236C293.576 136.246 293.098 136.275 292.658 136.324C292.658 138.072 293.088 139.444 293.947 140.44C294.816 141.437 296.013 141.935 297.536 141.935C298.269 141.935 298.991 141.822 299.704 141.598C300.427 141.363 301.154 141.012 301.887 140.543L302.546 141.803C301.413 142.701 300.3 143.375 299.206 143.824C298.112 144.264 297.028 144.483 295.954 144.483C293.913 144.483 292.238 143.805 290.93 142.447C289.621 141.08 288.967 139.327 288.967 137.188C288.967 134.864 289.675 132.926 291.091 131.373C292.507 129.811 294.245 129.029 296.306 129.029C298.151 129.029 299.646 129.684 300.788 130.992C301.931 132.291 302.517 134.024 302.546 136.192ZM299.074 134.405C298.869 133.263 298.493 132.374 297.946 131.739C297.409 131.095 296.765 130.772 296.013 130.772C295.114 130.772 294.372 131.119 293.786 131.812C293.2 132.506 292.834 133.478 292.688 134.728H293.61C294.812 134.728 295.856 134.703 296.745 134.654C297.634 134.596 298.41 134.513 299.074 134.405ZM310.295 128.912C310.227 129.83 310.173 130.616 310.134 131.271C310.095 131.925 310.07 132.496 310.061 132.984C310.93 131.529 311.677 130.533 312.302 129.996C312.927 129.449 313.61 129.176 314.353 129.176C314.87 129.176 315.319 129.366 315.7 129.747C316.081 130.128 316.271 130.587 316.271 131.124C316.271 131.622 316.149 132.018 315.905 132.311C315.671 132.604 315.354 132.75 314.953 132.75C314.729 132.75 314.416 132.672 314.016 132.516C313.615 132.35 313.298 132.267 313.063 132.267C312.624 132.267 312.185 132.433 311.745 132.765C311.306 133.097 310.793 133.653 310.207 134.435C310.207 134.747 310.202 135.226 310.192 135.87C310.183 136.515 310.178 137.003 310.178 137.335V138.961C310.178 140.65 310.329 141.715 310.632 142.154C310.935 142.584 311.525 142.799 312.404 142.799C312.463 142.799 312.556 142.794 312.683 142.784C312.819 142.774 312.927 142.77 313.005 142.77V144H312.961C310.783 143.863 309.367 143.795 308.713 143.795C308.195 143.795 306.882 143.858 304.772 143.985H304.479V142.74H304.875C305.607 142.74 306.105 142.56 306.369 142.198C306.633 141.837 306.765 140.978 306.765 139.62V137.848V134.669C306.765 133.204 306.672 132.301 306.486 131.959C306.311 131.607 305.974 131.432 305.476 131.432C305.417 131.432 305.31 131.446 305.153 131.476C304.997 131.495 304.87 131.51 304.772 131.52L304.655 130.348C305.583 130.201 306.511 130.011 307.438 129.776C308.366 129.542 309.318 129.254 310.295 128.912ZM330.144 139.796L331.477 140.704C331.799 140.919 332.043 141.153 332.209 141.407C332.375 141.651 332.458 141.915 332.458 142.198C332.458 142.491 332.395 142.745 332.268 142.96C332.141 143.165 331.916 143.38 331.594 143.604L330.173 144.571L328.854 143.707C328.513 143.473 328.254 143.233 328.078 142.989C327.902 142.735 327.814 142.472 327.814 142.198C327.814 141.896 327.883 141.637 328.02 141.422C328.156 141.207 328.405 140.978 328.767 140.733L330.144 139.796ZM328.474 123.097H332.458C332.458 125.108 332.17 128.443 331.594 133.102C331.33 135.25 331.14 136.891 331.022 138.023H329.426C329.367 135.914 329.255 133.604 329.089 131.095C328.933 128.575 328.728 125.909 328.474 123.097Z" fill="white"/>
<g clip-path="url(#clip0_434_48)">
<mask id="path-2-inside-1_434_48" fill="white">
<path d="M198 38.3333C198 46.4666 194.769 54.2668 189.018 60.0179C183.267 65.7691 175.467 69 167.333 69C159.2 69 151.4 65.7691 145.649 60.0179C139.898 54.2668 136.667 46.4666 136.667 38.3333C136.667 30.2 139.898 22.3998 145.649 16.6487C151.4 10.8976 159.2 7.66667 167.333 7.66667C170.247 7.66667 173.083 8.08833 175.767 8.855L181.785 2.83667C177.338 0.996667 172.47 0 167.333 0C162.299 0 157.315 0.991521 152.664 2.91795C148.013 4.84438 143.787 7.66799 140.228 11.2276C133.039 18.4165 129 28.1667 129 38.3333C129 48.5 133.039 58.2502 140.228 65.4391C143.787 68.9987 148.013 71.8223 152.664 73.7487C157.315 75.6751 162.299 76.6667 167.333 76.6667C177.5 76.6667 187.25 72.628 194.439 65.4391C201.628 58.2502 205.667 48.5 205.667 38.3333M151.655 30.9733L146.25 36.4167L163.5 53.6667L201.833 15.3333L196.428 9.89L163.5 42.8183L151.655 30.9733Z"/>
</mask>
<path d="M198 38.3333C198 46.4666 194.769 54.2668 189.018 60.0179C183.267 65.7691 175.467 69 167.333 69C159.2 69 151.4 65.7691 145.649 60.0179C139.898 54.2668 136.667 46.4666 136.667 38.3333C136.667 30.2 139.898 22.3998 145.649 16.6487C151.4 10.8976 159.2 7.66667 167.333 7.66667C170.247 7.66667 173.083 8.08833 175.767 8.855L181.785 2.83667C177.338 0.996667 172.47 0 167.333 0C162.299 0 157.315 0.991521 152.664 2.91795C148.013 4.84438 143.787 7.66799 140.228 11.2276C133.039 18.4165 129 28.1667 129 38.3333C129 48.5 133.039 58.2502 140.228 65.4391C143.787 68.9987 148.013 71.8223 152.664 73.7487C157.315 75.6751 162.299 76.6667 167.333 76.6667C177.5 76.6667 187.25 72.628 194.439 65.4391C201.628 58.2502 205.667 48.5 205.667 38.3333M151.655 30.9733L146.25 36.4167L163.5 53.6667L201.833 15.3333L196.428 9.89L163.5 42.8183L151.655 30.9733Z" fill="white"/>
<path d="M167.333 69V70.5V69ZM136.667 38.3333H135.167H136.667ZM167.333 7.66667V6.16667V7.66667ZM175.767 8.855L175.355 10.2973L176.203 10.5398L176.827 9.91566L175.767 8.855ZM181.785 2.83667L182.846 3.89733L184.434 2.30932L182.359 1.45064L181.785 2.83667ZM167.333 0V1.5V0ZM129 38.3333H127.5H129ZM167.333 76.6667V78.1667V76.6667ZM151.655 30.9733L152.716 29.9127L151.651 28.8483L150.591 29.9164L151.655 30.9733ZM146.25 36.4167L145.186 35.3598L144.132 36.4204L145.189 37.4773L146.25 36.4167ZM163.5 53.6667L162.439 54.7273L163.5 55.788L164.561 54.7273L163.5 53.6667ZM201.833 15.3333L202.894 16.394L203.951 15.3371L202.898 14.2764L201.833 15.3333ZM196.428 9.89L197.493 8.83309L196.432 7.76492L195.368 8.82934L196.428 9.89ZM163.5 42.8183L162.439 43.879L163.5 44.9397L164.561 43.879L163.5 42.8183ZM196.5 38.3333C196.5 46.0688 193.427 53.4875 187.957 58.9573L190.079 61.0786C196.111 55.0462 199.5 46.8645 199.5 38.3333H196.5ZM187.957 58.9573C182.487 64.4271 175.069 67.5 167.333 67.5V70.5C175.864 70.5 184.046 67.111 190.079 61.0786L187.957 58.9573ZM167.333 67.5C159.598 67.5 152.179 64.4271 146.709 58.9573L144.588 61.0786C150.62 67.111 158.802 70.5 167.333 70.5V67.5ZM146.709 58.9573C141.24 53.4875 138.167 46.0688 138.167 38.3333H135.167C135.167 46.8645 138.556 55.0462 144.588 61.0786L146.709 58.9573ZM138.167 38.3333C138.167 30.5979 141.24 23.1792 146.709 17.7094L144.588 15.5881C138.556 21.6205 135.167 29.8022 135.167 38.3333H138.167ZM146.709 17.7094C152.179 12.2396 159.598 9.16667 167.333 9.16667V6.16667C158.802 6.16667 150.62 9.55564 144.588 15.5881L146.709 17.7094ZM167.333 9.16667C170.102 9.16667 172.8 9.56737 175.355 10.2973L176.179 7.41271C173.367 6.6093 170.392 6.16667 167.333 6.16667V9.16667ZM176.827 9.91566L182.846 3.89733L180.724 1.77601L174.706 7.79434L176.827 9.91566ZM182.359 1.45064C177.729 -0.464841 172.666 -1.5 167.333 -1.5V1.5C172.274 1.5 176.947 2.45817 181.211 4.22269L182.359 1.45064ZM167.333 -1.5C162.102 -1.5 156.923 -0.46968 152.09 1.53213L153.238 4.30377C157.707 2.45272 162.496 1.5 167.333 1.5V-1.5ZM152.09 1.53213C147.257 3.53394 142.866 6.46805 139.167 10.1669L141.288 12.2882C144.709 8.86794 148.769 6.15482 153.238 4.30377L152.09 1.53213ZM139.167 10.1669C131.697 17.6371 127.5 27.7689 127.5 38.3333H130.5C130.5 28.5645 134.381 19.1958 141.288 12.2882L139.167 10.1669ZM127.5 38.3333C127.5 48.8978 131.697 59.0296 139.167 66.4998L141.288 64.3784C134.381 57.4708 130.5 48.1021 130.5 38.3333H127.5ZM139.167 66.4998C142.866 70.1986 147.257 73.1327 152.09 75.1345L153.238 72.3629C148.769 70.5118 144.709 67.7987 141.288 64.3784L139.167 66.4998ZM152.09 75.1345C156.923 77.1364 162.102 78.1667 167.333 78.1667V75.1667C162.496 75.1667 157.707 74.2139 153.238 72.3629L152.09 75.1345ZM167.333 78.1667C177.898 78.1667 188.03 73.9699 195.5 66.4998L193.378 64.3784C186.471 71.286 177.102 75.1667 167.333 75.1667V78.1667ZM195.5 66.4998C202.97 59.0296 207.167 48.8978 207.167 38.3333H204.167C204.167 48.1021 200.286 57.4708 193.378 64.3784L195.5 66.4998ZM150.591 29.9164L145.186 35.3598L147.314 37.4736L152.719 32.0302L150.591 29.9164ZM145.189 37.4773L162.439 54.7273L164.561 52.606L147.311 35.356L145.189 37.4773ZM164.561 54.7273L202.894 16.394L200.773 14.2727L162.439 52.606L164.561 54.7273ZM202.898 14.2764L197.493 8.83309L195.364 10.9469L200.769 16.3902L202.898 14.2764ZM195.368 8.82934L162.439 41.7577L164.561 43.879L197.489 10.9507L195.368 8.82934ZM164.561 41.7577L152.716 29.9127L150.594 32.034L162.439 43.879L164.561 41.7577Z" fill="#6F7064" mask="url(#path-2-inside-1_434_48)"/>
</g>
<defs>
<clipPath id="clip0_434_48">
<rect width="77" height="77" fill="white" transform="translate(129)"/>
</clipPath>
</defs>
</svg>
